<svg
        xmlns="http://www.w3.org/2000/svg"
        viewBox="0 0 220 48"
        preserveAspectRatio="xMidYMid meet"
        style="width: 100%; height: auto;"
>
    <rect width="210" height="48" rx="8" fill="#24292E"/>

    <!-- GitHub Mark -->
    <g transform="translate(16, 12)">
        <path fill="#FFFFFF" d="M12 .296C5.373.296 0 5.669 0 12.296c0 5.284 3.438 9.768 8.205 11.364.6.112.82-.26.82-.577v-2.165c-3.338.726-4.033-1.61-4.033-1.61-.546-1.387-1.333-1.756-1.333-1.756-1.09-.745.083-.73.083-.73 1.205.085 1.84 1.237 1.84 1.237 1.07 1.835 2.807 1.305 3.492.998.107-.776.42-1.306.762-1.606-2.665-.304-5.466-1.332-5.466-5.933 0-1.31.468-2.38 1.236-3.22-.124-.304-.536-1.527.117-3.183 0 0 1.008-.322 3.3 1.23.96-.267 1.986-.399 3.006-.404 1.02.005 2.047.137 3.006.404 2.29-1.552 3.296-1.23 3.296-1.23.655 1.656.243 2.879.12 3.183.77.84 1.234 1.91 1.234 3.22 0 4.612-2.803 5.625-5.475 5.922.43.37.814 1.096.814 2.21v3.277c0 .32.218.694.825.576C20.565 22.06 24 17.577 24 12.296 24 5.669 18.627.296 12 .296z"/>
    </g>

    <!-- 텍스트 -->
    <text x="60" y="30" fill="white" font-size="16" font-family="Arial, sans-serif">
        Sign in with GitHub
    </text>
</svg>