<svg xmlns="http://www.w3.org/2000/svg" width="48" height="48" viewBox="0 0 48 48">
    <circle cx="24" cy="24" r="24" fill="#24292E"/>
    <g transform="translate(0, 2)" >
    <path fill="#FFFFFF" d="M24 9C16.82 9 11 14.82 11 22c0 5.8 3.775 10.72 9.015 12.425.66.12.9-.287.9-.635 0-.314-.012-1.146-.018-2.25-3.668.797-4.44-1.77-4.44-1.77-.6-1.52-1.464-1.925-1.464-1.925-1.2-.82.09-.804.09-.804 1.328.093 2.03 1.37 2.03 1.37 1.2 2.05 3.15 1.45 3.92 1.1.12-.87.48-1.47.87-1.805-2.94-.33-6.04-1.47-6.04-6.55 0-1.45.52-2.63 1.38-3.56-.14-.33-.6-1.68.13-3.51 0 0 1.18-.38 3.85 1.46.84-.23 1.74-.35 2.62-.35s1.78.12 2.62.35c2.67-1.84 3.85-1.46 3.85-1.46.73 1.83.27 3.18.13 3.51.86.93 1.38 2.11 1.38 3.56 0 5.1-3.11 6.22-6.07 6.55.49.42.92 1.25.92 2.52 0 1.82-.02 3.29-.02 3.74 0 .35.24.76.91.63C33.23 32.71 37 27.8 37 22c0-7.18-5.82-13-13-13z"/>
    </g>
</svg>