<svg xmlns="http://www.w3.org/2000/svg" viewBox="0 0 48 48" width="48" height="48" preserveAspectRatio="xMidYMid meet">
    <rect width="48" height="48" rx="8" fill="#24292E"/>
    <g transform="translate(0, 2)">
        <path fill="#FFFFFF" d="M24 5C15.163 5 8 12.163 8 21c0 7.07 4.584 13.06 10.956 15.176.8.147 1.093-.347 1.093-.77 0-.38-.014-1.388-.022-2.725-4.457.968-5.396-2.15-5.396-2.15-.728-1.85-1.778-2.344-1.778-2.344-1.454-.994.11-.974.11-.974 1.608.113 2.455 1.65 2.455 1.65 1.428 2.446 3.745 1.74 4.66 1.33.144-1.033.56-1.74 1.02-2.14-3.558-.4-7.3-1.78-7.3-7.925 0-1.75.62-3.18 1.646-4.3-.164-.403-.713-2.026.158-4.222 0 0 1.34-.43 4.388 1.64a15.263 15.263 0 013.996-.54c1.356.006 2.726.184 4 .54 3.047-2.07 4.384-1.64 4.384-1.64.874 2.196.325 3.82.16 4.222 1.03 1.12 1.644 2.55 1.644 4.3 0 6.16-3.75 7.52-7.32 7.91.575.49 1.086 1.455 1.086 2.937 0 2.118-.02 3.827-.02 4.35 0 .427.29.926 1.1.77C35.42 34.06 40 28.07 40 21c0-8.837-7.163-16-16-16z"/>
    </g>
</svg>