<svg xmlns="http://www.w3.org/2000/svg" viewBox="0 0 250 48" width="250" height="48">
    <rect x="0" y="0" rx="12" ry="12" width="250" height="48" fill="white" />

    <!-- Google G 로고 -->
    <g transform="translate(20, 15)">
        <path fill="#4285F4" d="M15.6 9.2273C15.6 8.5182 15.5364 7.8364 15.4182 7.1818H6V11.05H11.3818C11.15 12.3 10.4455 13.3591 9.3864 14.0682V16.5773H12.6182C14.5091 14.8364 15.6 12.2727 15.6 9.2273Z"/>
        <path fill="#34A853" d="M6 19C8.7 19 10.9636 18.1045 12.6181 16.5773L9.3863 14.0682C8.4909 14.6682 7.3454 15.0227 6 15.0227C3.3954 15.0227 1.1909 13.2636 0.4045 10.9H-2.9364V13.4909C-1.2909 16.7591 2.0909 19 6 19Z"/>
        <path fill="#FBBC04" d="M0.4045 10.9C0.2045 10.3 0.0909 9.6591 0.0909 9C0.0909 8.3409 0.2045 7.7 0.4045 7.1V4.5091H-2.9364C-3.6136 5.8591 -4 7.3864 -4 9C-4 10.6136 -3.6136 12.1409 -2.9364 13.4909L0.4045 10.9Z"/>
        <path fill="#E94235" d="M6 2.9773C7.4681 2.9773 8.7863 3.4818 9.8227 4.4727L12.6909 1.6045C10.9591 -0.0091 8.6954 -1 6 -1C2.0909 -1 -1.2909 1.2409 -2.9364 4.5091L0.4045 7.1C1.1909 4.7364 3.3954 2.9773 6 2.9773Z"/>
    </g>

    <!-- 텍스트 -->
    <text x="90" y="31" fill="#1F1F1F" font-family="'Apple SD Gothic Neo','Malgun Gothic','sans-serif'" font-size="16" font-weight="bold">
        구글 로그인
    </text>
</svg>